# xmcd CD database file
#
# Track frame offsets:
#	150
#	16422
#	27443
#	48394
#	67536
#	93136
#	111930
#	128628
#	142821
#	162012
#	174798
#	191705
#	223125
#
# Disc length: 3083 seconds
#
# Revision: 2
# Processed by: cddbd v1.5.2PL0 Copyright (c) Steve Scherf et al.
# Submitted via: CDex 1.51
#
DISCID=a10c090d
DTITLE=Michael Martin Murphey - Cowboy Classics
DYEAR=2002
DGENRE=Country
TTITLE0=I Ride an Old Paint
TTITLE1=Whoopie Ti-Ti-Yo
TTITLE2=The Old Chisolm Trail
TTITLE3=Strawberry Roan
TTITLE4=Red River Valley
TTITLE5=Little Joe the Wrangler
TTITLE6=The Colorado Trail
TTITLE7=Tying Knots in the Devil's Tail
TTITLE8=When the Work's All Done this Fall
TTITLE9=The Yellow Rose of Texas
TTITLE10=Utah Carroll
TTITLE11=The Streets of Laredo
TTITLE12=I Ride an Old Paint (reprise)
EXTD=YEAR: 2002
EXTT0=
EXTT1=
EXTT2=
EXTT3=
EXTT4=
EXTT5=
EXTT6=
EXTT7=
EXTT8=
EXTT9=
EXTT10=
EXTT11=
EXTT12=
PLAYORDER=
